<svg width="20" height="20" viewBox="0 0 20 20" fill="none" xmlns="http://www.w3.org/2000/svg">
<path d="M8.74512 13.9642C8.74512 13.9642 9.33887 14.558 10.2295 14.558C11.1201 14.558 11.7139 13.9642 11.7139 13.9642M14.3857 10.9955C14.3857 11.153 14.3232 11.304 14.2118 11.4153C14.1005 11.5267 13.9495 11.5892 13.792 11.5892C13.6345 11.5892 13.4835 11.5267 13.3721 11.4153C13.2608 11.304 13.1982 11.153 13.1982 10.9955C13.1982 10.838 13.2608 10.687 13.3721 10.5756C13.4835 10.4643 13.6345 10.4017 13.792 10.4017C13.9495 10.4017 14.1005 10.4643 14.2118 10.5756C14.3232 10.687 14.3857 10.838 14.3857 10.9955ZM7.26074 10.9955C7.26074 11.153 7.19819 11.304 7.08684 11.4153C6.97549 11.5267 6.82446 11.5892 6.66699 11.5892C6.50952 11.5892 6.3585 11.5267 6.24715 11.4153C6.1358 11.304 6.07324 11.153 6.07324 10.9955C6.07324 10.838 6.1358 10.687 6.24715 10.5756C6.3585 10.4643 6.50952 10.4017 6.66699 10.4017C6.82446 10.4017 6.97549 10.4643 7.08684 10.5756C7.19819 10.687 7.26074 10.838 7.26074 10.9955ZM17.9482 9.80798C17.9482 14.0711 14.4926 17.5267 10.2295 17.5267C5.96637 17.5267 2.51074 14.0711 2.51074 9.80798C2.51074 5.54486 5.96637 2.08923 10.2295 2.08923C14.4926 2.08923 17.9482 5.54486 17.9482 9.80798Z" stroke="#00355B" stroke-width="2" stroke-linecap="round" stroke-linejoin="round"/>
</svg>
