<svg width="48" height="48" viewBox="0 0 48 48" fill="none" xmlns="http://www.w3.org/2000/svg">
<path d="M25.9651 23.999H43.6524M43.6524 23.999L37.1022 16.138M43.6524 23.999L37.1022 31.8599M27.9304 14.1727V10.5842C27.9304 10.0405 27.8176 9.50281 27.5991 9.00499C27.3807 8.50717 27.0613 8.06008 26.6613 7.69198C26.2612 7.32388 25.7891 7.04277 25.2749 6.86642C24.7607 6.69007 24.2154 6.62231 23.6737 6.66743L7.95168 7.97629C6.96915 8.05812 6.05327 8.50621 5.38565 9.23171C4.71804 9.9572 4.34746 10.9071 4.34741 11.893V36.1049C4.34746 37.0908 4.71804 38.0407 5.38565 38.7662C6.05327 39.4917 6.96915 39.9398 7.95168 40.0216L23.6737 41.3324C24.2156 41.3776 24.761 41.3098 25.2754 41.1333C25.7897 40.9568 26.2619 40.6755 26.662 40.3072C27.0621 39.9389 27.3814 39.4916 27.5997 38.9935C27.818 38.4955 27.9306 37.9575 27.9304 37.4137V33.8252" stroke="#F3F3F3" stroke-width="3.9305" stroke-linecap="round" stroke-linejoin="round"/>
</svg>
